<svg width="151" height="150" viewBox="0 0 151 150" fill="none" xmlns="http://www.w3.org/2000/svg">
<path d="M54.4651 100.488C45.5477 96.9346 32.9021 67.2367 32.7359 59.902C32.6472 56.0091 18.3088 63.5871 19.1595 65.7765C27.8718 88.1718 45.4576 105.967 51.9694 108.475C60.5611 111.784 59.1218 102.343 54.4651 100.488Z" fill="url(#paint0_linear_113_2829)"/>
<path d="M25.3611 64.1875C29.2785 63.2647 33.7333 58.8885 34.7908 48.3953C35.8493 37.9005 39.5779 35.2397 40.9585 32.8085C40.628 29.1864 34.7664 24.5093 30.9639 33.2396C29.3227 37.3361 29.0306 40.3243 29.0363 41.9637C28.6209 40.6774 28.1425 39.4077 27.602 38.1782C23.0832 27.9031 19.8273 18.0302 19.7657 17.4744C19.706 16.9178 12.457 18.5486 14.858 25.008C16.5399 29.303 17.6356 30.4317 17.6356 30.4317C17.6356 30.4317 19.5723 37.0904 20.7292 38.7754C20.5708 38.97 20.3837 39.1879 20.1748 39.4274C16.8312 35.125 10.7409 26.0993 9.23969 23.6108C6.04108 25.5782 3.69028 30.1289 7.84809 34.4151C10.9233 37.5845 12.1109 40.5306 14.6466 43.9836C11.8991 40.7879 5.14199 35.4244 4.00072 34.0442C2.56139 32.3032 -0.932115 38.1063 2.54899 41.4144C5.10732 43.5127 6.5813 44.7766 6.5813 44.7766C6.5813 44.7766 9.74138 48.7445 12.1328 50.013C12.0087 50.2544 11.8899 50.4958 11.7764 50.7384C8.80232 48.6606 3.44102 45.9304 2.4051 45.0876C0.976736 43.9256 -1.00635 49.2597 2.31283 51.3356C4.70286 52.5906 6.08808 53.3589 6.08808 53.3589C6.08808 53.3589 8.39186 55.3065 10.3926 56.2549C10.3994 57.4407 10.6397 58.6085 11.1853 59.726C14.9383 67.4214 20.0412 66.2058 25.3611 64.1875Z" fill="url(#paint1_linear_113_2829)"/>
<path d="M96.5349 100.488C105.452 96.9346 118.098 67.2367 118.264 59.902C118.353 56.0091 132.691 63.5871 131.841 65.7765C123.128 88.1718 105.542 105.967 99.0306 108.475C90.4389 111.784 91.8782 102.343 96.5349 100.488Z" fill="url(#paint2_linear_113_2829)"/>
<path d="M125.638 64.1875C121.721 63.2647 117.266 58.8885 116.209 48.3953C115.15 37.9005 111.422 35.2397 110.041 32.8085C110.372 29.1864 116.233 24.5093 120.036 33.2396C121.677 37.3361 121.969 40.3243 121.963 41.9637C122.379 40.6774 122.857 39.4077 123.398 38.1782C127.916 27.9031 131.172 18.0302 131.234 17.4744C131.294 16.9178 138.543 18.5486 136.142 25.008C134.459 29.303 133.364 30.4317 133.364 30.4317C133.364 30.4317 131.427 37.0904 130.27 38.7754C130.429 38.97 130.616 39.1879 130.825 39.4274C134.168 35.125 140.259 26.0993 141.76 23.6108C144.958 25.5782 147.309 30.1289 143.151 34.4151C140.076 37.5845 138.889 40.5306 136.353 43.9836C139.1 40.7879 145.858 35.4244 146.999 34.0442C148.439 32.3032 151.932 38.1063 148.451 41.4144C145.893 43.5127 144.419 44.7766 144.419 44.7766C144.419 44.7766 141.259 48.7445 138.867 50.013C138.991 50.2544 139.11 50.4958 139.223 50.7384C142.198 48.6606 147.559 45.9304 148.595 45.0876C150.023 43.9256 152.006 49.2597 148.687 51.3356C146.297 52.5906 144.912 53.3589 144.912 53.3589C144.912 53.3589 142.608 55.3065 140.607 56.2549C140.601 57.4407 140.36 58.6085 139.815 59.726C136.061 67.4214 130.958 66.2058 125.638 64.1875Z" fill="url(#paint3_linear_113_2829)"/>
<path d="M94.5043 139.615C95.0682 142.336 95.1655 150 74.9343 150C53.9063 150 56.191 139.615 56.191 139.615C56.191 139.615 79.3654 141.545 94.5043 139.615Z" fill="url(#paint4_linear_113_2829)"/>
<path d="M71.6163 89.6659C71.6163 89.6659 77.7477 89.0317 77.8824 89.6667C78.3487 91.8654 79.5356 97.8149 81.0527 97.8149C82.906 97.8149 82.6858 99.411 85.301 99.411C85.301 107.091 75.4754 133.329 75.4754 133.329C75.4754 133.329 64.9893 107.345 64.9893 99.6667C67.7657 99.6667 67.3991 97.8153 69.2828 97.8153C71.0464 97.8145 71.6163 89.6659 71.6163 89.6659Z" fill="url(#paint5_linear_113_2829)"/>
<path d="M87.342 128.043H63.1348V98.835H69.1579L74.8403 102.39L80.8635 98.835H87.342V128.043Z" fill="url(#paint6_linear_113_2829)"/>
<path d="M79.1815 129.109C79.1815 129.109 79.6585 126.467 79.1759 122.763C78.7513 119.506 77.1815 109.849 77.1815 109.849C77.1673 109.783 77.11 109.733 77.0393 109.727L75.3472 109.531C75.3182 109.494 75.2695 109.466 75.2146 109.466H75.2139H75.2125H75.2118C75.2051 109.466 75.1973 109.469 75.1906 109.469L74.9944 109.493L74.7953 109.472C74.789 109.47 74.7819 109.47 74.7752 109.47C74.7345 109.47 74.696 109.483 74.6663 109.509C74.6564 109.518 74.6482 109.525 74.6422 109.535L72.9487 109.727C72.8783 109.734 72.8214 109.783 72.8066 109.849C72.8066 109.849 73.1184 117.138 72.6704 122.608C72.3774 126.198 69.6819 128.777 69.6963 128.791L73.3093 134.907C73.3401 134.939 73.3843 134.956 73.4303 134.956C73.4759 134.956 73.5204 134.939 73.5511 134.907C73.5511 134.907 79.1907 129.157 79.1815 129.109Z" fill="url(#paint7_linear_113_2829)"/>
<path d="M70.2718 102.502L69.6191 105.572C69.6191 105.572 72.3825 109.389 72.4108 109.684C72.4391 109.979 73.0645 109.94 73.0645 109.94H74.9189H75.1558H77.0657C77.0657 109.94 77.6844 109.979 77.7131 109.684C77.7406 109.389 80.497 105.581 80.497 105.581L79.8142 102.482C77.8499 102.519 72.3563 102.529 70.2718 102.502Z" fill="url(#paint8_linear_113_2829)"/>
<path opacity="0.3" d="M75.2072 102.39L68.0856 109.095C68.0856 109.095 66.1721 95.0193 68.7725 98.4954C70.8507 101.273 75.2072 102.39 75.2072 102.39Z" fill="#1F1411"/>
<path opacity="0.3" d="M74.6035 102.39L81.7255 109.095C81.7255 109.095 83.6389 95.0193 81.0385 98.4954C78.96 101.273 74.6035 102.39 74.6035 102.39Z" fill="#1F1411"/>
<path d="M87.9085 99.2476H94.4479C96.2828 99.2476 97.7713 101.168 97.7713 103.538C97.7713 103.538 94.9439 122.464 94.9439 128.773C94.9439 131.507 95.8865 143.059 95.8865 143.059C95.8865 147.185 80.8261 146.416 80.8261 146.416C78.4693 146.472 74.2644 145.126 74.2644 142.756L74.0576 127.312L87.9085 99.2476Z" fill="url(#paint9_linear_113_2829)"/>
<path d="M85.3517 98.835L74.0352 127.312C76.3184 126.893 88.5542 113.671 88.4768 113.234C88.0674 110.925 86.7727 108.146 86.9399 107.796C87.1064 107.446 91.0076 107.516 91.0076 107.516C91.342 107.096 88.666 98.8353 88.3874 98.8353C88.1084 98.835 85.3517 98.835 85.3517 98.835Z" fill="#396AFC"/>
<path d="M62.5425 99.2476H56.0031C54.1682 99.2476 52.6797 101.168 52.6797 103.538C52.6797 103.538 55.5071 122.464 55.5071 128.773C55.5071 131.507 54.5649 143.059 54.5649 143.059C54.5649 147.185 69.6249 146.416 69.6249 146.416C71.982 146.472 76.1865 145.126 76.1865 142.756L76.3937 127.312L62.5425 99.2476Z" fill="url(#paint10_linear_113_2829)"/>
<path d="M65.0997 98.835L76.4163 127.312C74.1331 126.893 61.8973 113.671 61.975 113.234C62.3845 110.925 63.6791 108.146 63.5123 107.796C63.3454 107.446 59.4439 107.516 59.4439 107.516C59.1094 107.096 61.7855 98.8353 62.0645 98.8353C62.3431 98.835 65.0997 98.835 65.0997 98.835Z" fill="#396AFC"/>
<path d="M74.8307 129.345C74.8307 130.062 74.2972 130.643 73.6399 130.643C72.983 130.643 72.4502 130.062 72.4502 129.345C72.4502 128.626 72.9826 128.043 73.6399 128.043C74.2972 128.044 74.8307 128.626 74.8307 129.345Z" fill="url(#paint11_linear_113_2829)"/>
<path d="M74.8307 137.213C74.8307 137.93 74.2972 138.513 73.6399 138.513C72.983 138.513 72.4502 137.93 72.4502 137.213C72.4502 136.495 72.9826 135.913 73.6399 135.913C74.2972 135.913 74.8307 136.495 74.8307 137.213Z" fill="url(#paint12_linear_113_2829)"/>
<path d="M75.2073 102.39L67.7137 107.688C67.7137 107.688 64.8117 105.516 65.0879 98.835L68.4003 97.0886C70.4778 99.8664 75.2073 102.39 75.2073 102.39Z" fill="url(#paint13_linear_113_2829)"/>
<path d="M74.6045 102.39L82.0981 107.688C82.0981 107.688 85.0004 105.516 84.7239 98.835L81.4118 97.0886C79.334 99.8664 74.6045 102.39 74.6045 102.39Z" fill="url(#paint14_linear_113_2829)"/>
<path d="M44.9479 50.9697C44.9479 50.9697 40.7466 44.4335 34.9844 48.9182C32.3705 50.9527 30.1654 58.6385 34.2592 66.288C38.2647 73.7717 45.3195 74.7637 47.5837 70.9372L44.9479 50.9697Z" fill="url(#paint15_linear_113_2829)"/>
<path d="M44.9476 50.9697C44.9476 50.9697 40.7464 44.4335 34.9841 48.9182C33.466 50.0998 32.0949 53.1935 32.0068 57.0737C32.103 56.5317 33.2139 50.8229 37.4332 49.8117C41.8629 48.7502 45.0541 54.6826 45.0541 54.5266C45.0541 54.4895 45.106 53.7865 45.1831 52.7539L44.9476 50.9697Z" fill="url(#paint16_linear_113_2829)"/>
<path d="M35.1725 58.2349C35.611 55.2003 37.3073 53.819 39.5216 53.9716C41.736 54.1242 43.03 57.3755 43.1254 60.5716C43.1254 60.5716 40.3945 60.1895 40.3146 63.1299C40.2436 65.7523 42.6089 66.6713 43.5882 66.0463C43.5882 66.0463 43.4086 67.5165 41.1133 67.6891C38.3436 67.8973 34.405 62.7868 35.1725 58.2349Z" fill="url(#paint17_linear_113_2829)"/>
<path d="M104.769 50.9697C104.769 50.9697 108.97 44.4335 114.732 48.9182C117.346 50.9527 119.551 58.6385 115.457 66.288C111.452 73.7717 104.397 74.7633 102.133 70.9372L104.769 50.9697Z" fill="url(#paint18_linear_113_2829)"/>
<path d="M114.433 67.9479C114.79 67.4307 115.136 66.8876 115.457 66.2877C119.551 58.6386 117.346 50.9524 114.732 48.9179C113.621 48.0534 112.571 47.605 111.595 47.4338C115.114 48.3949 119.389 56.723 114.433 67.9479Z" fill="url(#paint19_linear_113_2829)"/>
<path d="M114.543 58.2349C114.104 55.2003 112.408 53.819 110.194 53.9716C107.98 54.1242 106.686 57.3755 106.59 60.5716C106.59 60.5716 109.321 60.1895 109.401 63.1299C109.473 65.7523 107.107 66.6713 106.128 66.0463C106.128 66.0463 106.308 67.5165 108.602 67.6891C111.372 67.8973 115.31 62.7868 114.543 58.2349Z" fill="url(#paint20_linear_113_2829)"/>
<path d="M74.8587 95.7958C65.0684 95.7958 53.3169 87.7005 49.6947 83.4696C45.8491 78.9784 45.2962 56.485 44.6806 48.489C42.9139 25.5356 58.1917 15.2385 74.8587 15.2385C91.5256 15.2385 106.803 25.5356 105.037 48.489C104.421 56.485 102.656 78.9784 98.8103 83.4696C95.1881 87.7002 84.649 95.7958 74.8587 95.7958Z" fill="url(#paint21_linear_113_2829)"/>
<path opacity="0.1" d="M90.4432 62.1648C90.8236 64.2043 93.3346 65.3674 96.0513 64.7621C98.7684 64.1572 100.662 62.0134 100.282 59.9738C99.9015 57.9343 97.3906 56.7712 94.6738 57.3765C91.9564 57.9814 90.0624 60.1252 90.4432 62.1648Z" fill="#D76062"/>
<path opacity="0.1" d="M59.2732 62.1648C58.8927 64.2043 56.3818 65.3674 53.6647 64.7621C50.948 64.1572 49.0536 62.0134 49.4344 59.9738C49.8149 57.9343 52.3258 56.7712 55.0425 57.3765C57.7596 57.9814 59.6536 60.1252 59.2732 62.1648Z" fill="#D76062"/>
<path d="M104.878 50.4622C104.878 50.4622 101.379 70.9276 100.059 76.8238C98.7393 82.7199 95.873 85.8716 90.0472 89.7653C84.2213 93.6586 78.5057 95.8758 74.8584 95.8758C84.6483 95.8754 95.1875 87.7802 98.81 83.5501C102.384 79.3748 104.161 59.6506 104.888 50.4691L104.878 50.4622Z" fill="url(#paint22_linear_113_2829)"/>
<path d="M69.2426 38.8697C69.6619 38.9971 70.1954 33.1407 66.8412 32.1364L68.0429 35.5029C68.0429 35.5029 67.1385 32.5015 65.9361 31.8394C65.2141 31.4442 61.9144 30.5218 58.003 31.3647C53.6239 32.3076 52.128 33.4957 51.5634 34.8218C50.9987 36.1483 50.5137 39.2536 50.5137 39.2536C50.5137 39.2536 58.9792 35.7926 69.2426 38.8697Z" fill="url(#paint23_linear_113_2829)"/>
<path d="M80.3514 38.0617C79.907 38.1362 80.4062 32.3749 83.9732 31.7815L82.1616 34.9212C82.1616 34.9212 83.6073 32.1029 84.9395 31.5981C85.7382 31.2948 89.2366 30.7741 93.0384 32.0434C97.2924 33.4649 98.5917 34.7902 98.9283 36.1461C99.2631 37.5019 99.2023 40.5794 99.2023 40.5794C99.2023 40.5794 91.265 36.2412 80.3514 38.0617Z" fill="url(#paint24_linear_113_2829)"/>
<path d="M80.957 65.6164C79.3331 66.4296 76.9856 66.9437 74.3654 66.9437C71.0578 66.9437 68.1813 66.1267 66.6561 64.9192C66.5977 65.1455 67.4198 70.4858 73.8881 70.5426C79.4781 70.5917 80.9938 65.5033 80.957 65.6164Z" fill="#826340"/>
<path d="M80.9575 65.8187C79.3336 66.6318 76.986 67.146 74.3658 67.146C70.9982 67.146 68.0686 66.3016 66.5664 65.0574C66.5635 65.0999 66.542 65.14 66.542 65.1829C66.542 67.2792 69.7965 68.9781 73.8111 68.9781C77.8261 68.9781 80.1337 66.9227 80.9575 65.8187Z" fill="url(#paint25_linear_113_2829)"/>
<path d="M97.3587 52.4819C97.3587 52.4819 97.9272 45.6057 91.0371 45.0606C84.1474 44.5156 82.7416 52.2686 82.7324 52.3065C82.7324 52.3065 85.1957 48.5086 90.5616 48.9331C95.9275 49.358 97.3587 52.4819 97.3587 52.4819Z" fill="#975543"/>
<path d="M82.7019 52.789C82.8815 52.8307 83.6777 52.2574 86.3757 51.4343C88.9082 50.6617 91.561 50.9059 93.2474 51.376C95.2347 51.9299 96.1497 52.6932 96.9481 53.2652C97.4501 53.6249 97.9437 53.2815 97.2542 51.9936C96.5899 50.7529 95.4875 49.3959 92.1252 48.7879C88.5246 48.137 85.9797 49.2337 84.2162 50.6892C82.4912 52.113 82.2932 52.6947 82.7019 52.789Z" fill="url(#paint26_linear_113_2829)"/>
<path d="M52.359 52.4819C52.359 52.4819 51.7909 45.6057 58.6806 45.0606C65.5703 44.5156 66.9761 52.2686 66.9853 52.3065C66.9853 52.3065 64.5217 48.5086 59.1561 48.9331C53.7902 49.358 52.359 52.4819 52.359 52.4819Z" fill="#975543"/>
<path d="M67.0149 52.789C66.8353 52.8307 66.0391 52.2574 63.3411 51.4343C60.8086 50.6617 58.1555 50.9059 56.4694 51.376C54.4825 51.9299 53.5671 52.6932 52.7688 53.2652C52.2667 53.6249 51.7732 53.2815 52.4626 51.9936C53.1269 50.7529 54.2293 49.3959 57.5916 48.7879C61.1922 48.137 63.7371 49.2337 65.5006 50.6892C67.2256 52.113 67.4236 52.6947 67.0149 52.789Z" fill="url(#paint27_linear_113_2829)"/>
<path d="M77.5679 86.2304C75.4194 86.0589 67.959 85.6193 69.0172 87.0636C70.1055 88.5484 72.6581 90.1039 75.215 89.3723C77.7719 88.6407 79.9908 86.4239 77.5679 86.2304Z" fill="url(#paint28_linear_113_2829)"/>
<path d="M60.3369 72.079C60.3369 72.079 75.6031 76.5359 88.1868 71.4915L81.7662 84.1884C81.7662 84.1884 76.6871 86.4489 66.854 84.0231L60.3369 72.079Z" fill="#661115"/>
<path d="M66.3281 83.059L66.8542 84.0235C76.6873 86.4494 81.7661 84.1885 81.7661 84.1885L83.1673 81.4177C76.4674 79.8483 70.4474 81.3451 66.3281 83.059Z" fill="#991E23"/>
<path d="M65.7555 77.1627C68.8477 77.8947 81.0585 78.23 84.4544 77.1627C84.9214 77.0159 85.3595 76.6941 85.7717 76.2677L88.1868 71.4917C75.6034 76.5361 60.3369 72.0789 60.3369 72.0789C60.3369 72.0789 62.6637 76.4307 65.7555 77.1627Z" fill="#FBFBFC"/>
<path d="M87.3754 73.0963L88.1868 71.4917C75.6034 76.5361 60.3369 72.0789 60.3369 72.0789C60.3369 72.0789 60.7145 72.7799 61.3604 73.6633C64.8447 74.5155 76.8769 76.9405 87.3754 73.0963Z" fill="#E0D3BB"/>
<path d="M45.8662 57.8675C47.0732 56.2502 47.1114 51.9988 46.0013 50.41C47.3349 50.1856 47.3211 46.1849 45.7739 44.7753C47.2274 43.8626 48.7364 39.3864 46.2601 38.3929C50.0074 38.851 52.9493 32.4639 49.7659 30.2138C53.1993 30.3189 54.0252 25.6859 53.5971 23.4663C56.1547 24.9446 62.8871 24.8357 63.4591 19.016C65.8647 21.5909 73.2384 20.2722 73.5559 16.7342C75.0762 20.6631 81.3808 20.5742 83.6425 18.0348C84.2676 22.3206 88.7694 23.041 90.9021 20.6951C91.938 24.486 95.347 27.6852 98.2825 26.4213C97.6889 30.1339 99.1654 33.4242 101.689 33.141C101.137 34.2883 100.623 39.9167 103.605 39.9303C102.763 41.2544 101.805 44.1809 103.834 45.5251C102.72 47.4986 102.64 53.6829 105.055 54.2967C107.552 52.6709 108.005 49.0263 108.005 49.0263C110.178 49.1994 109.941 41.7071 108.719 40.9643C111.178 39.0843 110.774 31.5785 108.756 30.2366C110.119 27.9815 107.625 22.8734 105.847 23.1723C108.334 19.8488 103.79 11.4271 99.3556 12.4403C99.0392 8.29402 93.8087 5.18756 91.1962 7.07298C91.0241 2.75941 84.3769 1.34372 82.561 3.67376C80.8937 -0.563721 69.6156 -1.9416 67.3062 3.93409C63.3464 -0.0341522 56.8325 2.84477 56.7624 7.65047C53.6423 3.47866 47.8663 10.137 49.0578 12.8C45.6134 11.5264 41.7144 18.919 43.6788 21.0652C40.1913 21.2336 38.6095 26.9142 40.6958 28.4149C37.7009 29.6796 38.1838 38.4647 41.131 39.121C36.9711 41.0837 39.1653 44.2527 41.3697 44.989C39.5931 46.8787 40.6972 51.9972 42.3459 52.2131C40.9995 54.9322 45.8662 57.8675 45.8662 57.8675Z" fill="url(#paint29_linear_113_2829)"/>
<path opacity="0.61" d="M54.158 18.3098C57.3393 20.945 62.9722 18.7563 62.9039 14.398C64.8612 16.75 69.9531 17.4604 71.5119 12.7041C74.0646 15.558 80.5916 15.6665 82.3735 12.8146C82.1295 15.1667 87.4919 17.9436 89.8247 15.3011C89.9109 17.343 93.0816 18.678 95.927 16.8393C98.7728 14.9975 97.0358 8.21599 91.8194 8.95455C91.6504 5.02725 84.6458 1.10807 82.6157 4.71939C80.2235 -0.59078 69.4896 -1.13468 67.0995 4.72633C64.2131 0.822979 57.8951 2.72618 58.4891 8.12211C53.7864 5.5858 51.7606 8.23836 51.8111 11.9575C47.5603 10.3559 44.3447 16.2085 47.7275 18.6196C44.449 17.6342 42.986 22.3862 45.9877 24.3667C48.989 26.3502 50.7473 22.6477 50.3421 20.5394C53.6383 23.0329 54.5713 20.286 54.158 18.3098Z" fill="#272C2C"/>
<path opacity="0.61" d="M98.7824 16.4881C95.9175 16.4599 96.3312 21.9266 100.064 22.7026C103.795 23.4794 102.426 16.5233 98.7824 16.4881Z" fill="#272C2C"/>
<path opacity="0.61" d="M101.704 24.3262C100.21 24.8817 101.404 29.0206 103.3 29.1412C105.197 29.264 106.614 22.4906 101.704 24.3262Z" fill="#272C2C"/>
<path opacity="0.61" d="M44.6212 27.9448C41.8957 26.9714 38.7968 33.1206 43.4248 33.749C48.0532 34.3771 48.0217 29.1635 44.6212 27.9448Z" fill="#272C2C"/>
<path opacity="0.61" d="M43.6101 38.3153C41.0475 38.712 41.6896 41.9888 43.7646 42.1202C45.8396 42.2503 45.6176 38.0051 43.6101 38.3153Z" fill="#272C2C"/>
<path opacity="0.61" d="M103.483 33.6026C106.306 32.6152 107.312 38.2028 104.878 38.2159C102.444 38.2275 100.654 34.591 103.483 33.6026Z" fill="#272C2C"/>
<path opacity="0.61" d="M64.7399 4.84135C61.7361 5.62897 62.1091 11.3444 66.1849 10.9913C70.2607 10.6375 69.7254 3.53495 64.7399 4.84135Z" fill="#404744"/>
<path opacity="0.61" d="M73.626 2.38865C68.6741 2.75368 65.3846 10.0227 72.6329 10.0964C79.8815 10.1706 82.3086 1.74936 73.626 2.38865Z" fill="#404744"/>
<path opacity="0.61" d="M56.766 9.48211C60.6251 7.70716 61.7087 12.755 58.7427 14.3898C55.7778 16.0214 53.4126 11.0292 56.766 9.48211Z" fill="#404744"/>
<path opacity="0.61" d="M85.1686 6.08294C82.5407 5.18909 79.656 10.7778 84.4283 11.3128C89.1999 11.8455 87.9122 7.01928 85.1686 6.08294Z" fill="#404744"/>
<path d="M76.9894 45.6499L75.211 45.5383L75.2117 45.4973L72.7542 45.6391C72.7542 45.6391 63.7138 39.6893 43.6598 44.0882L43.6523 47.9413C43.6523 47.9413 45.8514 47.6501 46.235 49.5772C46.235 49.5772 45.955 60.3969 59.4067 59.3922C59.4067 59.3922 69.7497 60.7507 73.0063 48.7521C73.0063 48.7521 73.6109 47.9822 74.5276 47.8494V47.8671C74.6319 47.844 74.7323 47.8324 74.8313 47.8258C74.9526 47.8289 75.0771 47.8394 75.2068 47.8699V47.8401C76.1268 47.9749 76.7239 48.7614 76.7239 48.7614C79.9335 60.7751 90.282 59.4659 90.282 59.4659C103.729 60.5352 103.492 49.7151 103.492 49.7151C103.884 47.7895 106.082 48.0912 106.082 48.0912L106.089 44.2373C86.0535 39.7429 76.9894 45.6499 76.9894 45.6499ZM71.1915 50.9949C71.1915 50.9949 68.5773 58.078 60.1842 58.2082C60.1842 58.2082 50.0824 59.5246 47.8282 51.4827C47.1373 49.0179 48.1421 46.3711 50.1995 45.3011C52.3558 44.1778 56.1739 43.4126 62.9285 44.2821C62.9285 44.2821 73.6777 45.5854 71.1915 50.9949ZM101.891 51.6117C99.6049 59.6428 89.5078 58.2778 89.5078 58.2778C81.1161 58.109 78.5302 51.0122 78.5302 51.0122C76.0656 45.5916 86.82 44.3385 86.82 44.3385C93.5782 43.5018 97.3928 44.286 99.5452 45.4182C101.597 46.499 102.593 49.1504 101.891 51.6117Z" fill="url(#paint30_linear_113_2829)"/>
<defs>
<linearGradient id="paint0_linear_113_2829" x1="24.8668" y1="26.5429" x2="79.4716" y2="28.336" gradientUnits="userSpaceOnUse">
<stop stop-color="#6747E7"/>
<stop offset="1" stop-color="#00FFF0"/>
</linearGradient>
<linearGradient id="paint1_linear_113_2829" x1="0.499828" y1="41.5398" x2="40.9585" y2="41.5398" gradientUnits="userSpaceOnUse">
<stop offset="0.6425" stop-color="#BB825A"/>
<stop offset="0.7811" stop-color="#B68058"/>
<stop offset="0.9517" stop-color="#A77C53"/>
<stop offset="1" stop-color="#A17A51"/>
</linearGradient>
<linearGradient id="paint2_linear_113_2829" x1="98.5504" y1="26.5429" x2="153.155" y2="28.336" gradientUnits="userSpaceOnUse">
<stop stop-color="#6747E7"/>
<stop offset="1" stop-color="#00FFF0"/>
</linearGradient>
<linearGradient id="paint3_linear_113_2829" x1="110.041" y1="41.5398" x2="150.5" y2="41.5398" gradientUnits="userSpaceOnUse">
<stop offset="0.6425" stop-color="#BB825A"/>
<stop offset="0.7811" stop-color="#B68058"/>
<stop offset="0.9517" stop-color="#A77C53"/>
<stop offset="1" stop-color="#A17A51"/>
</linearGradient>
<linearGradient id="paint4_linear_113_2829" x1="75.3889" y1="150.073" x2="75.3889" y2="140.493" gradientUnits="userSpaceOnUse">
<stop/>
<stop offset="0.4423" stop-color="#2A2929"/>
<stop offset="0.7923" stop-color="#444343"/>
<stop offset="1" stop-color="#4E4D4D"/>
</linearGradient>
<linearGradient id="paint5_linear_113_2829" x1="64.9892" y1="111.356" x2="85.3007" y2="111.356" gradientUnits="userSpaceOnUse">
<stop offset="0.6425" stop-color="#BB825A"/>
<stop offset="0.7811" stop-color="#B68058"/>
<stop offset="0.9517" stop-color="#A77C53"/>
<stop offset="1" stop-color="#A17A51"/>
</linearGradient>
<linearGradient id="paint6_linear_113_2829" x1="63.1347" y1="113.439" x2="87.3418" y2="113.439" gradientUnits="userSpaceOnUse">
<stop stop-color="white"/>
<stop offset="1" stop-color="#C9C9C9"/>
</linearGradient>
<linearGradient id="paint7_linear_113_2829" x1="74.5441" y1="109.466" x2="74.5441" y2="134.956" gradientUnits="userSpaceOnUse">
<stop stop-color="#3D83FF"/>
<stop offset="1" stop-color="#236DDF"/>
</linearGradient>
<linearGradient id="paint8_linear_113_2829" x1="75.0581" y1="102.482" x2="75.0581" y2="109.942" gradientUnits="userSpaceOnUse">
<stop stop-color="#3D83FF"/>
<stop offset="1" stop-color="#236DDF"/>
</linearGradient>
<linearGradient id="paint9_linear_113_2829" x1="77.5438" y1="68.9942" x2="110.707" y2="69.6991" gradientUnits="userSpaceOnUse">
<stop stop-color="#6747E7"/>
<stop offset="1" stop-color="#00FFF0"/>
</linearGradient>
<linearGradient id="paint10_linear_113_2829" x1="56.1659" y1="68.9942" x2="89.3295" y2="69.6991" gradientUnits="userSpaceOnUse">
<stop stop-color="#6747E7"/>
<stop offset="1" stop-color="#00FFF0"/>
</linearGradient>
<linearGradient id="paint11_linear_113_2829" x1="72.8002" y1="126.378" x2="76.1257" y2="126.506" gradientUnits="userSpaceOnUse">
<stop stop-color="#6747E7"/>
<stop offset="1" stop-color="#00FFF0"/>
</linearGradient>
<linearGradient id="paint12_linear_113_2829" x1="74.8306" y1="137.213" x2="72.4501" y2="137.213" gradientUnits="userSpaceOnUse">
<stop stop-color="#535455"/>
<stop offset="0.1796" stop-color="#575859"/>
<stop offset="0.3631" stop-color="#636465"/>
<stop offset="0.5483" stop-color="#78797A"/>
<stop offset="0.7349" stop-color="#949596"/>
<stop offset="0.9207" stop-color="#B9BABA"/>
<stop offset="1" stop-color="#CBCCCC"/>
</linearGradient>
<linearGradient id="paint13_linear_113_2829" x1="65.3923" y1="103.094" x2="74.896" y2="100.986" gradientUnits="userSpaceOnUse">
<stop stop-color="white"/>
<stop offset="1" stop-color="#C9C9C9"/>
</linearGradient>
<linearGradient id="paint14_linear_113_2829" x1="77.6159" y1="100.34" x2="84.7835" y2="103.311" gradientUnits="userSpaceOnUse">
<stop stop-color="white"/>
<stop offset="1" stop-color="#C9C9C9"/>
</linearGradient>
<linearGradient id="paint15_linear_113_2829" x1="31.9931" y1="60.2335" x2="47.5837" y2="60.2335" gradientUnits="userSpaceOnUse">
<stop offset="0.6425" stop-color="#BB825A"/>
<stop offset="0.7811" stop-color="#B68058"/>
<stop offset="0.9517" stop-color="#A77C53"/>
<stop offset="1" stop-color="#A17A51"/>
</linearGradient>
<linearGradient id="paint16_linear_113_2829" x1="32.0068" y1="52.2098" x2="45.183" y2="52.2098" gradientUnits="userSpaceOnUse">
<stop stop-color="#BB825A"/>
<stop offset="0.158" stop-color="#AC7A53"/>
<stop offset="0.525" stop-color="#8D6945"/>
<stop offset="0.7316" stop-color="#826340"/>
<stop offset="1" stop-color="#826340"/>
</linearGradient>
<linearGradient id="paint17_linear_113_2829" x1="35.0752" y1="60.8278" x2="43.5878" y2="60.8278" gradientUnits="userSpaceOnUse">
<stop stop-color="#BB825A"/>
<stop offset="0.158" stop-color="#AC7A53"/>
<stop offset="0.525" stop-color="#8D6945"/>
<stop offset="0.7316" stop-color="#826340"/>
<stop offset="1" stop-color="#826340"/>
</linearGradient>
<linearGradient id="paint18_linear_113_2829" x1="102.133" y1="60.2335" x2="117.723" y2="60.2335" gradientUnits="userSpaceOnUse">
<stop offset="0.6425" stop-color="#BB825A"/>
<stop offset="0.7811" stop-color="#B68058"/>
<stop offset="0.9517" stop-color="#A77C53"/>
<stop offset="1" stop-color="#A17A51"/>
</linearGradient>
<linearGradient id="paint19_linear_113_2829" x1="111.595" y1="57.6911" x2="117.723" y2="57.6911" gradientUnits="userSpaceOnUse">
<stop stop-color="#BB825A"/>
<stop offset="0.216" stop-color="#AC7A53"/>
<stop offset="0.7176" stop-color="#8D6945"/>
<stop offset="1" stop-color="#826340"/>
</linearGradient>
<linearGradient id="paint20_linear_113_2829" x1="106.128" y1="60.8278" x2="114.64" y2="60.8278" gradientUnits="userSpaceOnUse">
<stop stop-color="#BB825A"/>
<stop offset="0.158" stop-color="#AC7A53"/>
<stop offset="0.525" stop-color="#8D6945"/>
<stop offset="0.7316" stop-color="#826340"/>
<stop offset="1" stop-color="#826340"/>
</linearGradient>
<linearGradient id="paint21_linear_113_2829" x1="44.541" y1="55.5169" x2="105.176" y2="55.5169" gradientUnits="userSpaceOnUse">
<stop offset="0.6425" stop-color="#BB825A"/>
<stop offset="0.7811" stop-color="#B68058"/>
<stop offset="0.9517" stop-color="#A77C53"/>
<stop offset="1" stop-color="#A17A51"/>
</linearGradient>
<linearGradient id="paint22_linear_113_2829" x1="74.8582" y1="73.1689" x2="104.888" y2="73.1689" gradientUnits="userSpaceOnUse">
<stop stop-color="#BB825A"/>
<stop offset="0.216" stop-color="#AC7A53"/>
<stop offset="0.7176" stop-color="#8D6945"/>
<stop offset="1" stop-color="#826340"/>
</linearGradient>
<linearGradient id="paint23_linear_113_2829" x1="50.5134" y1="35.1377" x2="69.5532" y2="35.1377" gradientUnits="userSpaceOnUse">
<stop stop-color="#060104"/>
<stop offset="1" stop-color="#40210D"/>
</linearGradient>
<linearGradient id="paint24_linear_113_2829" x1="80.2149" y1="35.905" x2="99.2063" y2="35.905" gradientUnits="userSpaceOnUse">
<stop stop-color="#060104"/>
<stop offset="1" stop-color="#40210D"/>
</linearGradient>
<linearGradient id="paint25_linear_113_2829" x1="66.5423" y1="67.0179" x2="80.9576" y2="67.0179" gradientUnits="userSpaceOnUse">
<stop stop-color="#BB825A"/>
<stop offset="0.1307" stop-color="#B37E58"/>
<stop offset="0.6869" stop-color="#946F50"/>
<stop offset="1" stop-color="#896A4D"/>
</linearGradient>
<linearGradient id="paint26_linear_113_2829" x1="82.5216" y1="50.9979" x2="97.5939" y2="50.9979" gradientUnits="userSpaceOnUse">
<stop stop-color="#060104"/>
<stop offset="0.178" stop-color="#0E0103"/>
<stop offset="0.593" stop-color="#1A0201"/>
<stop offset="1" stop-color="#1E0200"/>
</linearGradient>
<linearGradient id="paint27_linear_113_2829" x1="52.123" y1="50.9979" x2="67.1954" y2="50.9979" gradientUnits="userSpaceOnUse">
<stop stop-color="#060104"/>
<stop offset="0.178" stop-color="#0E0103"/>
<stop offset="0.593" stop-color="#1A0201"/>
<stop offset="1" stop-color="#1E0200"/>
</linearGradient>
<linearGradient id="paint28_linear_113_2829" x1="68.9151" y1="87.7952" x2="78.6116" y2="87.7952" gradientUnits="userSpaceOnUse">
<stop stop-color="#BB825A"/>
<stop offset="0.1307" stop-color="#B37E58"/>
<stop offset="0.6869" stop-color="#946F50"/>
<stop offset="1" stop-color="#896A4D"/>
</linearGradient>
<linearGradient id="paint29_linear_113_2829" x1="38.671" y1="28.9342" x2="110.418" y2="28.9342" gradientUnits="userSpaceOnUse">
<stop stop-color="#060104"/>
<stop offset="0.178" stop-color="#0E0103"/>
<stop offset="0.593" stop-color="#1A0201"/>
<stop offset="1" stop-color="#1E0200"/>
</linearGradient>
<linearGradient id="paint30_linear_113_2829" x1="43.6521" y1="51.0074" x2="106.089" y2="51.0131" gradientUnits="userSpaceOnUse">
<stop stop-color="#710000"/>
<stop offset="0.0534" stop-color="#560000"/>
<stop offset="0.1213" stop-color="#3B0000"/>
<stop offset="0.1993" stop-color="#250000"/>
<stop offset="0.2904" stop-color="#140000"/>
<stop offset="0.4031" stop-color="#090000"/>
<stop offset="0.5612" stop-color="#020000"/>
<stop offset="1"/>
</linearGradient>
</defs>
</svg>
